FILE "Hatsukoi Valentine (Japan).bin" BINARY
  TRACK 01 MODE2/2352
    INDEX 01 00:00:00
  TRACK 02 AUDIO
    INDEX 00 28:14:66
    INDEX 01 28:16:66
  TRACK 03 AUDIO
    INDEX 00 30:09:10
    INDEX 01 30:11:10
  TRACK 04 AUDIO
    INDEX 00 32:43:60
    INDEX 01 32:45:60
